<svg id="C_VectorShapes" xmlns="http://www.w3.org/2000/svg" width="1024" height="512" viewBox="0 0 1024 512">
  <defs>
    <style>
      .cls-1, .cls-2 {
        fill-rule: evenodd;
      }

      .cls-2 {
        fill: #ee3221;
      }
    </style>
  </defs>
  <path id="NU" class="cls-1" d="M357.9,255.3V87.3a0.266,0.266,0,0,1,.3-0.3c0.4,0,.6.1,0.6,0.3l99.6,168.9Q464.7,267,477,267a12.291,12.291,0,0,0,12.3-12.3V59.7a11.139,11.139,0,0,0-3.45-8.4,11.962,11.962,0,0,0-16.5,0,11.12,11.12,0,0,0-3.45,8.4v168a0.266,0.266,0,0,1-.3.3c-0.4,0-.6-0.1-0.6-0.3L365.4,58.8Q359.1,48,346.8,48a12.291,12.291,0,0,0-12.3,12.3v195a11.106,11.106,0,0,0,3.45,8.4,11.962,11.962,0,0,0,16.5,0,11.124,11.124,0,0,0,3.45-8.4h0ZM689.1,192V59.7a11.139,11.139,0,0,0-3.45-8.4,11.962,11.962,0,0,0-16.5,0,11.12,11.12,0,0,0-3.45,8.4V192.9q0,29.1-12.9,42.9t-39.3,13.8q-26.4,0-39.15-13.8T561.6,192.9V60.3A12.291,12.291,0,0,0,549.3,48a11.509,11.509,0,0,0-8.4,3.6,11.855,11.855,0,0,0-3.6,8.7V192q0,38.7,19.5,58.35T613.2,270q36.9,0,56.4-19.65T689.1,192h0Z"/>
  <path id="COMMUNICATIONS" class="cls-1" d="M114.542,462.829a4.612,4.612,0,0,0,2.552-1.719,4.774,4.774,0,0,0,.99-2.969,2.488,2.488,0,0,0-1.094-2.135,2.661,2.661,0,0,0-2.448-.365,48.489,48.489,0,0,1-13.958,1.875q-11.562,0-18.49-8.489t-6.927-23.594q0-15.207,6.667-23.646t18.438-8.437a47.046,47.046,0,0,1,13.75,1.875,2.654,2.654,0,0,0,2.447-.365,2.483,2.483,0,0,0,1.094-2.135,5.006,5.006,0,0,0-.989-3.021,4.547,4.547,0,0,0-2.552-1.771,60.851,60.851,0,0,0-14.48-1.563q-15.418,0-24.115,10.313t-8.7,28.75q0,18.543,9.063,28.8T99.855,464.5a63.11,63.11,0,0,0,14.687-1.666h0Zm72.5-37.4q0,15.836-6.3,23.958t-18.177,8.125q-11.874,0-18.177-8.125t-6.3-23.958q0-15.832,6.3-23.958t18.177-8.125q11.875,0,18.177,8.125T187.042,425.433Zm8.542,0q0-18.54-8.8-28.8T162.563,386.37q-15.417,0-24.219,10.261t-8.8,28.8q0,18.543,8.8,28.8t24.219,10.26q15.416,0,24.219-10.26T195.584,425.433Zm21.042,33.958V401.475a0.1,0.1,0,1,1,.208,0l19.583,35.937a6.493,6.493,0,0,0,11.459,0l19.479-35.937a0.1,0.1,0,1,1,.208,0v57.812a4.082,4.082,0,0,0,1.2,2.917,4.151,4.151,0,0,0,5.938,0,4.09,4.09,0,0,0,1.2-2.917v-67.5a4.449,4.449,0,0,0-4.375-4.375,6.736,6.736,0,0,0-6.459,3.854l-22.812,41.875a0.092,0.092,0,0,1-.1.1c-0.14,0-.209-0.034-0.209-0.1l-22.812-41.979a6.814,6.814,0,0,0-6.354-3.75,3.944,3.944,0,0,0-2.969,1.25,4.207,4.207,0,0,0-1.2,3.021v67.708a3.993,3.993,0,0,0,1.146,2.865,3.737,3.737,0,0,0,2.812,1.2,4.091,4.091,0,0,0,4.063-4.063h0Zm85,0V401.475a0.1,0.1,0,1,1,.208,0l19.583,35.937a6.493,6.493,0,0,0,11.459,0l19.479-35.937a0.1,0.1,0,1,1,.208,0v57.812a4.082,4.082,0,0,0,1.2,2.917,4.151,4.151,0,0,0,5.938,0,4.09,4.09,0,0,0,1.2-2.917v-67.5a4.449,4.449,0,0,0-4.375-4.375,6.736,6.736,0,0,0-6.459,3.854l-22.812,41.875a0.092,0.092,0,0,1-.1.1c-0.14,0-.209-0.034-0.209-0.1l-22.812-41.979a6.814,6.814,0,0,0-6.354-3.75,3.944,3.944,0,0,0-2.969,1.25,4.207,4.207,0,0,0-1.2,3.021v67.708a3.993,3.993,0,0,0,1.146,2.865,3.737,3.737,0,0,0,2.812,1.2,4.091,4.091,0,0,0,4.063-4.063h0Zm128.646-21.979V391.475a3.87,3.87,0,0,0-1.2-2.917,4.154,4.154,0,0,0-5.73,0,3.862,3.862,0,0,0-1.2,2.917v46.25q0,10.1-4.48,14.895t-13.645,4.792q-9.168,0-13.594-4.792T386,437.725V391.683a4.268,4.268,0,0,0-4.271-4.271,4,4,0,0,0-2.917,1.25,4.118,4.118,0,0,0-1.25,3.021v45.729q0,13.437,6.771,20.26t19.583,6.823q12.813,0,19.584-6.823t6.771-20.26h0Zm24.791,21.979V401.058a0.092,0.092,0,0,1,.1-0.1c0.139,0,.209.036,0.209,0.1L489.959,459.7a7.036,7.036,0,0,0,6.458,3.75,4.268,4.268,0,0,0,4.271-4.271V391.475a3.867,3.867,0,0,0-1.2-2.917,4.153,4.153,0,0,0-5.729,0,3.863,3.863,0,0,0-1.2,2.917v58.333a0.092,0.092,0,0,1-.1.1c-0.14,0-.208-0.034-0.208-0.1l-34.584-58.646a7.037,7.037,0,0,0-6.458-3.75,4.268,4.268,0,0,0-4.271,4.271v67.708a3.857,3.857,0,0,0,1.2,2.917,4.153,4.153,0,0,0,5.729,0,3.861,3.861,0,0,0,1.2-2.917h0Zm75.417-.416V391.891a4.48,4.48,0,1,0-8.959,0v67.084a4.48,4.48,0,1,0,8.959,0h0Zm63.958,3.854a4.616,4.616,0,0,0,2.552-1.719,4.78,4.78,0,0,0,.99-2.969,2.488,2.488,0,0,0-1.094-2.135,2.661,2.661,0,0,0-2.448-.365,48.489,48.489,0,0,1-13.958,1.875q-11.562,0-18.49-8.489t-6.927-23.594q0-15.207,6.667-23.646t18.437-8.437a47.037,47.037,0,0,1,13.75,1.875,2.655,2.655,0,0,0,2.448-.365,2.485,2.485,0,0,0,1.094-2.135,5,5,0,0,0-.99-3.021,4.54,4.54,0,0,0-2.552-1.771,60.838,60.838,0,0,0-14.479-1.563q-15.417,0-24.114,10.313t-8.7,28.75q0,18.543,9.062,28.8t24.063,10.26a63.11,63.11,0,0,0,14.687-1.666h0Zm45.1-67.917a0.093,0.093,0,0,1,.1.1l12.709,38.75a1.089,1.089,0,0,1-.156.573,0.513,0.513,0,0,1-.469.261H627.251a0.639,0.639,0,0,1-.521-0.261,0.57,0.57,0,0,1-.1-0.573l12.708-38.75c0-.068.068-0.1,0.208-0.1h0ZM616.053,462.36a5.843,5.843,0,0,0,2.135-2.969l5.729-17.291a1.147,1.147,0,0,1,1.146-.834h28.854a1.216,1.216,0,0,1,1.25.834l5.521,17.083a6.172,6.172,0,0,0,2.24,3.073,6.038,6.038,0,0,0,3.7,1.2,2.931,2.931,0,0,0,2.5-1.3,3.016,3.016,0,0,0,.416-2.865l-23.646-67.5a6.654,6.654,0,0,0-12.5,0l-23.75,67.6a2.841,2.841,0,0,0,.417,2.761,2.93,2.93,0,0,0,2.5,1.3A5.8,5.8,0,0,0,616.053,462.36ZM689.334,394.5a0.829,0.829,0,0,1,.937.938v63.854a4.082,4.082,0,0,0,1.2,2.917,4.151,4.151,0,0,0,5.938,0,4.09,4.09,0,0,0,1.2-2.917V395.433a0.829,0.829,0,0,1,.937-0.938h18.125a3.542,3.542,0,0,0,0-7.083H671.209a3.542,3.542,0,0,0,0,7.083h18.125Zm59.062,64.48V391.891a4.479,4.479,0,1,0-8.958,0v67.084a4.479,4.479,0,1,0,8.958,0h0Zm73.646-33.542q0,15.836-6.3,23.958t-18.177,8.125q-11.875,0-18.177-8.125t-6.3-23.958q0-15.832,6.3-23.958t18.177-8.125q11.875,0,18.177,8.125T822.042,425.433Zm8.542,0q0-18.54-8.8-28.8T797.563,386.37q-15.417,0-24.219,10.261t-8.8,28.8q0,18.543,8.8,28.8t24.219,10.26q15.416,0,24.219-10.26T830.584,425.433Zm21.146,33.958V401.058a0.092,0.092,0,0,1,.1-0.1c0.138,0,.208.036,0.208,0.1L886.626,459.7a7.036,7.036,0,0,0,6.458,3.75,4.268,4.268,0,0,0,4.271-4.271V391.475a3.87,3.87,0,0,0-1.2-2.917,4.153,4.153,0,0,0-5.729,0,3.863,3.863,0,0,0-1.2,2.917v58.333a0.092,0.092,0,0,1-.1.1c-0.14,0-.209-0.034-0.209-0.1l-34.583-58.646a7.038,7.038,0,0,0-6.458-3.75,4.268,4.268,0,0,0-4.271,4.271v67.708a3.857,3.857,0,0,0,1.2,2.917,4.153,4.153,0,0,0,5.729,0,3.864,3.864,0,0,0,1.2-2.917h0Zm93.958-25.1a13.125,13.125,0,0,1,3.542,9.375q0,13.856-16.458,13.854a31.052,31.052,0,0,1-15.73-4.062,2.254,2.254,0,0,0-2.291,0,2.1,2.1,0,0,0-1.146,1.979,5.9,5.9,0,0,0,3.646,5.833A38.948,38.948,0,0,0,933.4,464.5q11.876,0,18.021-5.312t6.146-15.521q0-8.644-5.208-14.167T934.23,419.7q-13.647-4.583-13.646-14.792,0-5.937,3.8-8.854t10.052-2.917a41.478,41.478,0,0,1,16.979,3.75,2.541,2.541,0,0,0,2.4-.156,2.211,2.211,0,0,0,1.146-2.031,5.834,5.834,0,0,0-1.042-3.386,5.644,5.644,0,0,0-2.708-2.135,52.229,52.229,0,0,0-17.4-2.813q-10.1,0-15.729,4.9t-5.625,13.646q0,15.522,21.562,22.813Q942.147,430.538,945.688,434.287Z"/>
  <path id="NU_C_HighFreq_1" data-name="NU_C_HighFreq 1" class="cls-2" d="M715.459,63v1.435l2.152-.718v0.718h0.718V63.718L721.2,63v0.718l4.3,0.718V65.87l1.434-.718V65.87h1.435l-0.717,1.435h0.717v0.718h2.152l0.717,2.153h0.718c0.69,1,.683,1.8.717,3.588h0.717c0.479,1.107-1.262.285-1.434,1.435a15.535,15.535,0,0,1,.717,9.328h-0.717V89.55H731.24l0.718,1.435-1.435.718V92.42h0.717l-0.717,3.588h-0.717v1.435h-0.718v2.87h-0.717v1.435h-0.717v2.87h-0.718l-0.717,2.871H725.5v1.435h-0.718q0.36,0.717.718,1.435l-2.152,1.435V116.1h-0.717v-0.717l-1.435.717v2.153h-1.435a7.091,7.091,0,0,1-1.434,4.305l-1.435.718v2.87h-0.717q-0.359,1.077-.718,2.153h-1.434v1.435c-0.91-.451-1.028-1.179-1.435-1.435h-0.717v0.717c-0.928,1.124-.707-1.4-0.718-1.435a1.258,1.258,0,0,0,.718-0.717l1.434,0.717v-0.717c1.876-2.405-1.451-2.113,1.435-4.306V121.84h0.717v0.717c1.187,0.7.607-1.033,0.718-1.435h-1.435v-0.717h0.717c0.467-.612.37-1.428,1.435-1.436v0.718h0.717a7.608,7.608,0,0,1-.717-2.87l1.435,0.717v-0.717c-1.33-1.788,2.5-4.812.717-6.458h1.435q2.51-7.534,5.021-15.069V91.7s-1.461-.027-0.718-0.718h1.435c-0.045-1.68.076-2.729-.717-3.588h0.717l1.435-.718-0.718-2.153,1.435-.718c0.266-1.067-1.35-1.017-1.435-1.435q0.718-1.076,1.435-2.153h-1.435c0.012-3.239-1.186-4.818,0-7.176h-0.717c-0.822-1.391-1.919-1.709-2.869-2.87l-7.891-.718-0.717,1.435-2.869-.718v0.718H709v1.435l-1.435-.718v0.718c-2.16.6-3.99,0.373-5.739,1.435L701.113,75.2h-1.435v0.718h-2.151l0.717,1.435-2.152-.718v0.718l-2.869.718v0.718h-1.435l-0.717,2.153-2.152-.718L688.2,81.657l-2.869.718-0.717,2.153-1.435-.718v0.718h-1.434q-0.718,1.076-1.435,2.153c-0.917.61-4.533,1.319-5.021,2.153v1.435h-2.152v0.718l-2.152.718V92.42c-1.841,1.278-1.372-.777-2.152,2.153l-3.587.718c-0.869,1.527-1.615,1.562-2.152,3.588h-2.152v1.435h-1.434v1.435h-2.152c-0.685,1.089-1.4,1.215-2.152,2.153,0.817,0.817.286,0,.717,1.435l-2.152-.718v0.718c-2.886,1.611-5.119,4.645-7.173,7.175l-2.869,1.436v1.435h-1.435c-0.869,1.526-1.615,1.562-2.152,3.587h-1.434l-2.152,2.871h-0.718c-0.69,1.124.19,2.082-.717,2.87l-2.152.717-0.717,2.871-1.435-.718-0.717,2.153-1.435.717v0.718H627.23c-0.921.755-2.539,4.241-2.87,5.74h-1.434l-2.152,2.871h-0.717v1.435l-2.152,1.435,0.717,1.435h-0.717c-1.428,1.9-1.651.219-2.152,3.588H613.6c-0.553,2.307-1.082,1.546-1.435,4.305h-1.435c-0.868.541-.858,2.743-1.434,3.588l-1.435.717a14.436,14.436,0,0,0-3.586,6.458h-1.435v2.153h-1.435a5.14,5.14,0,0,1-.717,2.87h0.717v0.718h-2.152c-0.5,1.943-1.329,2.673-2.152,4.305h-0.717l0.717,2.153h-2.151c-0.315,1.328-2.684,6.558-3.587,6.458v0.718H592.8v1.435c-3.923.632-2.935,1.333-4.3,4.3h-0.718q0.358,1.076.718,2.153l-2.152.717v1.435l-1.435.718v1.435h-0.717v2.153h-0.718V197.9l-1.434.717v1.435h-0.717l0.717,1.436-2.152,1.435v1.435H579.17v2.152h-0.718v0.718h0.718v0.718l-2.152,1.435v2.87H576.3v1.435l-1.434.718v1.435h-0.718c-0.563,1.516.989,2.2,0.718,2.87l-2.152,1.435V222.3H572v1.435h-0.717v2.152h-0.717v1.436h-0.717v2.152h-0.718q0.359,0.718.718,1.435l-1.435.718v3.588l-1.435.717q0.359,1.077.718,2.153h-1.435l0.717,2.153h-0.717c-0.467,1.306-.953,2.143,0,2.87h-1.435q-1.076,4.664-2.152,9.328h-0.717v3.588h-0.717v2.153h-0.718v0.717c0.414,0.521,1.068-.235.718,0.718h-0.718l-0.717,2.152h0.717v-0.717c0.617-1.356.718,1.435,0.718,1.435-3.584,2.247-.892,2.485-2.152,6.458h-0.718v2.153H557.65l0.717,2.87-1.434.717V279.7h-0.717c-0.953,3.494,2,4.543.717,6.458v0.718h-0.717V286.16H555.5v2.153h1.435v2.87h-0.717v-0.717c-0.617-1.356-.718,1.435-0.718,1.435h0.718v0.717H555.5v5.023h1.435c-0.445.982-1.154,0.991-1.435,1.435q0.358,1.077.718,2.153h0.717v1.435h0.717l-0.717,3.588h0.717v-0.718l1.435,0.718v2.87l2.152,0.718a1.255,1.255,0,0,1-.718.717c-0.817.817,0,.286-1.434,0.718,0.9,3.485,3.273,4.3,3.586,9.328a6.971,6.971,0,0,1,2.87.718l-0.718,2.152h0.718v0.718h2.152c-0.428,1.075-1.025,1.159,0,2.153l1.434-.718v1.435c0.793,0.814,1.955.686,3.587,0.718a6.993,6.993,0,0,0,.717,2.87h0.717v-0.718a21.119,21.119,0,0,0,2.87.718v1.435l2.869-.718v0.718c1.626,0.812.546,0.288,2.152,0l0.717,1.435,2.152-.717v0.717h2.152v0.718h0.717v-0.718l2.152,0.718v-0.718a16.675,16.675,0,0,1,5.739-.717v1.435h0.717v-2.153H597.1c1.556,1.183,4.194-.877,6.456-1.435v1.435a1.257,1.257,0,0,0,.718-0.718c0.816-.817.285,0,0.717-1.435,3.066-.176,2.444-0.409,4.3-1.435v-0.717a18.864,18.864,0,0,0,2.869.717l-0.717-1.435h2.869c0.491-2.1.8-2.35,2.869-2.87v0.717H616.47c-0.819,1.135,1.763.668,2.152,0.718v-1.435l3.586-.718v-1.435c1.442,0.412.621-.086,1.435,0.718l2.152-.718c-0.553-.729-0.881-0.706-1.435-1.435,2.54-.273,2.178-0.89,4.3-1.435v-1.435l2.152-.718-0.717,2.153h0.717V318.45h2.152v-0.717h-1.434v-0.718h0.717c0.808-1.233.454-.972,2.152-1.435v-2.153c2.524-.339,2.3-0.247,5.021-0.717l0.717-2.87c3.516-.928,2.572-2.282,4.3-4.306h0.718v-0.717l1.434,0.717v-0.717a5.934,5.934,0,0,1,2.869-1.435v-1.435c2.1-.491,2.349-0.8,2.87-2.871a7,7,0,0,1,2.869.718v-3.588h0.717v0.718h0.718v-1.435h1.434c1.053-1.711,1.833-1.06,2.152-1.436l-0.717-1.435c0.531-.864.316,0.215,0.717-0.717l2.152,0.717,0.717-2.87c1.982-.519,1.605-0.2,2.152-2.153l2.152,0.718v-2.87c1.965-.463,1.633-0.939,3.587-1.435l0.717-2.871,2.152,0.718a7,7,0,0,1,.717-2.87l2.152,0.717-0.717-2.152,1.435,0.717c1.243-.712-0.317-1.709,0-2.152h0.717l2.869-3.588h1.435v-1.435l3.586-.718c0.643-3.3,2.782-5.431,5.022-7.176v-0.717h2.152a1.379,1.379,0,0,0,0-2.153h1.434v-2.152c1.965-.463,1.633-0.94,3.587-1.436,0.817-3.136,3.4-3.775,4.3-7.175,1.981-.519,1.6-0.2,2.152-2.153h1.434q0.359-1.434.718-2.87c2.086-.43,2.3-2.049,3.586-0.718v-1.435h0.717v-2.152h2.152q1.436-2.871,2.87-5.741h1.434l1.435-2.152h0.717v-2.871l1.435,0.718c1.055-1.1,1.173-1.542,1.435-3.588h2.151c0.2-1.506-.034-2.042.718-2.87h1.434l-0.717-2.153h1.435v-1.435h1.434c0.853-3.329,1.922-1.907,3.587-3.588l-0.717-1.435c0.753-.694,1.438-0.837,2.152,0v-1.435a1.257,1.257,0,0,1-.718-0.718h2.152c0.448-1.875.761-2.041,2.152-2.87a1.256,1.256,0,0,1,.717-0.717v2.87c-0.976.836-1.1,1.309-1.434,2.87-2.478.67-2.431,1.785-2.869,4.3h-1.435l-0.717,2.153H731.24v2.153l-1.434-.718q-0.359,1.794-.718,3.588h-1.434v1.435h-1.435v2.153H725.5c-0.716,2.959-.67.784-2.152,2.153l0.717,1.435h-2.152c-0.223,1.017-5.331,9.092-5.738,9.328h-1.435l-0.717,2.87H712.59v1.435h-1.435c-0.628,2.584-2.186,3.173-2.869,5.741h-1.434c-0.519,1.982-.2,1.605-2.152,2.152-0.876,3.356-4.062,4.413-5.022,7.893h-1.434c-0.838,3.18-2.7,2.548-3.587,5.741h-1.434q-0.358,1.075-.718,2.153l-5.021,4.305-0.717,3.588h-1.435v1.435L683.9,279.7l-0.718,1.435-4.3,3.588v2.153h-2.152c-0.063.12-2.869,4.305-2.869,4.305H672.42c-0.624,2.46-1.483,1.848-2.151,4.306h-2.152v1.435l-3.587,2.87v0.717H663.1l-0.717,1.436-1.435.717V304.1h-1.434c-0.7,2.421-.87,1.373-2.152,2.87H656.64V308.4h-1.435c-1.184,2.014-2.891,2.441-3.587,5.022-1.312.29-2.849,0.588-3.586,1.436q-0.359,1.075-.718,2.152H645.88c-1.075,3.423-.659.732-2.869,2.153q-0.358,1.075-.718,2.153l-1.434-.718-1.435,2.153c-1.8,1.341-1.35-.784-2.152,2.152h-1.435v1.436l-1.434-.718-0.717,1.435-2.87.718v2.152H630.1c-0.415-.3-0.105-1.172-1.435-0.717v0.717c-0.816.818-.285,0-0.717,1.435-2.589.113-2.862,0.406-4.3,1.436v0.717h-2.152l-1.434,2.153-1.435-.718v0.718l-4.3,1.435v0.717h-1.435v0.718h-2.152l-0.717,1.435-5.021.718v0.717h-2.152v0.718h-2.152v0.717H597.1v0.718h-3.586v0.717h-5.739V345H587.06v-0.718l-3.587.718v-0.718l-2.151.718v-0.718h-5.739v-0.717h-2.869v-0.718h-2.152V342.13H568.41v-0.718l-2.869-.717v-0.718l-2.87-.717-0.717-1.436h-1.435l-1.434-2.152H557.65c-1.847-1.327-1.2-2.74-4.3-3.588a5.107,5.107,0,0,0-1.434-3.588h-0.718v-1.435c-2.119-3.155-4.657-4.106-5.021-9.328h-1.434q-0.36-2.511-.718-5.023H543.3v-1.435h-0.717l0.717-2.87-1.435-.718v-1.435h-0.717v-4.305c-0.054-.222-0.971-0.2-0.717-1.436,0.065-.318,1.848-0.473,1.434-1.435l-2.152-.717v-0.718h0.718v-2.152l1.434,0.717a33.33,33.33,0,0,0-2.869-2.87v-0.718h0.717V291.9H539l0.717-2.153h1.435a7.382,7.382,0,0,1,.717-3.588h-0.717v-1.435l-1.435.718v-1.435h0.718l0.717-5.023h-0.717V279.7c-0.617,1.356-.718-1.435-0.718-1.435h2.152v-2.152h-2.152c0.4-2.251.7-3.007,2.87-3.588v-2.871H543.3v-0.717c-0.2-.361-1.25-0.493-0.717-2.153H543.3v-1.435h0.717v-5.023H543.3c-0.292-2.115,1.332-1.747,1.435-2.152q-0.36-1.077-.718-2.153h1.435v-4.305h1.434V251h-0.717l0.717-2.153h-0.717v1.435h-1.434l0.717-4.305,1.434,0.718v-2.153h1.435c-0.323-1.538-.15-1.643-1.435-2.153v-0.717l2.152-.718V238.8c0.377-.943.67,0.3,0.718-0.718-0.337-.39-1.142.2-0.718-0.718l1.435-.717L549.76,234.5h0.717c0.817-.817,0-0.286,1.435-0.717q-0.359-2.153-.718-4.306l2.152-.717a6.477,6.477,0,0,1,.718-3.588h0.717l-0.717-2.153h0.717V221.58H555.5l-0.717-2.153h1.435c0.817-.817,0-0.285,1.434-0.717l-0.717-2.87h1.434q0.36-1.077.718-2.153h-0.718v-0.718l1.435-.717,0.717-3.588,1.435-.717v-2.871h0.717v-0.717a1.645,1.645,0,0,1-.717-1.435l1.435,0.717a21.685,21.685,0,0,0,2.869-7.175h2.152v-0.718c-1.784-1.312-.924-0.547-0.717-2.87l2.152-.718a5.148,5.148,0,0,0-.718-2.87h0.718c0.686-1.024,1-1.964,2.151-.717v-3.588c1.645-1.375.915-2.154,3.587-2.87,0.041-3.27.84-3.436,1.435-5.741h1.434c0.541-1.047,1.967-1.814,2.152-2.153,1.42-2.595-1.86-2.4,2.152-3.587v-3.588h1.435c0.527-1.009,2-1.861,2.152-2.153v-2.87h0.717c1.013-1.335.888-1.644,2.869-2.153,0.253-2.275.8-3.931,2.152-5.023l2.152-.717v-2.87h2.152v-0.718H597.1v-2.87c0.313-.65.914,0.035,1.435-2.153,2.1-.491,2.349-0.8,2.869-2.87l2.152-.718v-2.152h1.435c0.545-2.436,1.535-3.317,4.3-3.588v-2.87c1.292-.678,1.129-0.994,2.869-1.436,0.519-1.982.2-1.6,2.152-2.152V128.3l3.587-.718v-1.435H616.47c0.289-.919-0.644-1.477.717-1.435v0.717l2.152-1.435V121.84l1.435,0.717V121.84h0.717v-1.435h0.717l2.152-2.871,2.152,0.718-0.717-2.153,1.435-.717v-0.718l1.434,0.718v-2.153l2.87-2.153v0.718h0.717l-0.717-2.153,1.434,0.718v-0.718c2.063-1.206,1.946-2.42,5.021-2.87v-2.153c1.982-.519,1.605-0.2,2.152-2.152,1.729-.407,1.626-0.71,2.87-1.435v-0.718h0.717v0.718h0.717v-0.718H646.6V99.6c-0.617-.806-0.606.291-0.717-0.718l0.717-1.435,2.152,0.718V96.008h1.435V93.855l2.869,0.718c0.795-2.741.156-.992,2.152-2.153V91.7h2.152V90.985l1.435-.718V88.115h0.717c0.817,0.817,0,.286,1.434.718V87.4c0.817,0.818.286,0,.718,1.435H663.1l-0.717-2.153h2.152V85.244h4.3V84.527c-1.442-.412-0.621.086-1.435-0.718h1.435c1.046-1.471,1.187-1.622,2.869-.718V82.374h0.717V80.221l2.152,0.718v0.718c0.863-.038,1.132-0.655,2.87-0.718V79.5h1.434l-0.717-2.153h0.717a2.859,2.859,0,0,0,1.435,1.435V77.351h0.717L680.311,75.2a21.063,21.063,0,0,1,5.021.718V74.481h-0.717V75.2c-0.617,1.356-.717-1.435-0.717-1.435h4.3q0.718-1.076,1.435-2.153l3.587-.718V68.741c1.753,0.412,1.582.751,2.869,1.435V68.023h1.435v1.435l2.151-.718V67.305H700.4v0.718c0.616,1.356.717-1.435,0.717-1.435,2.267,0.081,1.344,1.4,2.152-.718,1.753,0.412,1.582.751,2.869,1.435l-0.717-2.153,7.89-.718q0.36-.717.718-1.435h1.434ZM709,65.87c0.817,0.817,0,.286,1.434.718C709.621,65.771,710.436,66.3,709,65.87Zm15.78,6.458c0.817,0.818.286,0,.718,1.435h-0.718V72.328Zm8.608,4.305h1.435l-0.717,2.153h-0.718V76.634Zm-58.1,2.87V78.069a1.255,1.255,0,0,1,.717.718h0.717V79.5H675.29ZM657.357,93.855V92.42a1.255,1.255,0,0,0-.717.718h-0.718C656.739,93.954,655.925,93.423,657.357,93.855Zm-26.541,19.374-0.717,1.435c0.053-.03,2.079-1.138,1.435-1.435h-0.718Zm6.456,7.893c0.817,0.818.286,0,.717,1.435h-0.717v-1.435Zm74.6,9.328h0.717c0.642,1.309-.493,2.222-0.717,2.871h-0.718V132.6l-2.151.718V132.6h0.717C710.472,131.669,711.187,131.535,711.873,130.45Zm-3.587,3.588H709v0.718l2.151-.718v0.718L709,136.191a1.258,1.258,0,0,1-.718.717v-2.87Zm-1.434,2.87h1.434a1.252,1.252,0,0,1-.717.718v0.718h-0.717v-1.436Zm-0.718,1.436h0.718V140.5h-0.718c-0.553-.729-0.881-0.706-1.434-1.435C706.141,138.649,705.32,139.147,706.134,138.344ZM580.6,202.924c0.817,0.817.286,0,.718,1.435H580.6v-1.435Zm159.961,2.152H742l-0.717,2.153h-0.718v-2.153Zm-2.152,2.153h1.435v0.718C738.406,207.535,739.227,208.033,738.413,207.229ZM540.435,291.183v2.153h0.717v-2.153h-0.717Zm17.932,17.939h-1.434l0.717,2.153h0.717v-2.153Zm83.209,1.435c0.817,0.817,0,.286,1.435.718C642.193,310.458,643.008,310.989,641.576,310.557Zm-12.912,9.328v1.436h0.718v-1.436h-0.718Zm-9.325,3.588v-1.435a1.257,1.257,0,0,1,.718.718h0.717C619.957,323.573,620.771,323.042,619.339,323.473Z"/>
</svg>
